<?xml version="1.0" encoding="utf-8"?>
<!-- Generator: Adobe Illustrator 21.0.0, SVG Export Plug-In . SVG Version: 6.00 Build 0)  -->
<svg version="1.1" id="Layer_1" xmlns="http://www.w3.org/2000/svg" xmlns:xlink="http://www.w3.org/1999/xlink" x="0px" y="0px"
	 viewBox="0 0 994 173" style="enable-background:new 0 0 994 173;" xml:space="preserve">
<style type="text/css">
	.st0{fill:#5F5F5E;}
	.st1{font-family:'Lato-Regular';}
	.st2{font-size:75px;}
	.st3{font-family:'Lato-Bold';}
	.st4{fill:#30A3D3;}
	.st5{fill:none;stroke:#FFFFFF;stroke-width:2.4;}
	.st6{fill:#FFFFFF;}
	.st7{font-size:16px;}
	.st8{letter-spacing:2;}
	.st9{fill:#528FA9;}
	.st10{font-family:'Merriweather-Regular';}
	.st11{font-size:36px;}
</style>
<title>Group</title>
<desc>Created with Sketch.</desc>
<g id="Page-1">
	<g id="Desktop-HD" transform="translate(-418.000000, -528.000000)">
		<g id="slide1" transform="translate(141.000000, 0.000000)">
			<g id="Group" transform="translate(0.000000, 527.000000)">
				<text transform="matrix(1 0 0 1 284.2125 68.112)" class="st0 st1 st2">Dentistry</text>
				<text transform="matrix(1 0 0 1 600.2981 68.112)" class="st0 st1 st2"> </text>
				<text transform="matrix(1 0 0 1 621.975 68.112)" class="st0 st1 st2">for </text>
				<text transform="matrix(1 0 0 1 733.9875 66.5373)" class="st0 st3 st2">Today’s Family</text>
				<g id="Rectangle-2-Copy-2">
					<g>
						<path id="path-1" class="st4" d="M974,106h236c16.6,0,30,13.4,30,30l0,0c0,16.6-13.4,30-30,30H974c-16.6,0-30-13.4-30-30l0,0
							C944,119.4,957.4,106,974,106z"/>
					</g>
					<path class="st5" d="M974,107.2h236c15.9,0,28.8,12.9,28.8,28.8v0c0,15.9-12.9,28.8-28.8,28.8H974c-15.9,0-28.8-12.9-28.8-28.8
						v0C945.2,120.1,958.1,107.2,974,107.2z"/>
				</g>
				<text transform="matrix(1 0 0 1 989.8044 142)" class="st6 st3 st7 st8">NEW PATIENT OFFERS</text>
				<text transform="matrix(1 0 0 1 330.0859 144)" class="st9 st10 st11">Now Welcoming New Patients!</text>
			</g>
		</g>
	</g>
</g>
</svg>
