<?xml version="1.0" encoding="utf-8"?>
<!-- Generator: Adobe Illustrator 21.0.0, SVG Export Plug-In . SVG Version: 6.00 Build 0)  -->
<svg version="1.1" id="Layer_1" xmlns="http://www.w3.org/2000/svg" xmlns:xlink="http://www.w3.org/1999/xlink" x="0px" y="0px"
	 viewBox="0 0 100 100" style="enable-background:new 0 0 100 100;" xml:space="preserve">
<style type="text/css">
	.st0{opacity:0.67;fill:#CDECF7;enable-background:new    ;}
	.st1{opacity:0.59;}
	.st2{fill:#FFFFFF;}
</style>
<rect class="st0" width="100" height="100"/>
<g class="st1">
	<polygon class="st2" points="100,55 91.1,63.9 100,72.8 	"/>
	<polygon class="st2" points="100,45 100,27.2 91.1,36.1 	"/>
	
		<rect x="79.8" y="43.7" transform="matrix(0.7071 -0.7071 0.7071 0.7071 -10.1374 75.5255)" class="st2" width="12.6" height="12.6"/>
	
		<rect x="7.6" y="43.7" transform="matrix(0.7071 -0.7071 0.7071 0.7071 -31.2838 24.4731)" class="st2" width="12.6" height="12.6"/>
	<polygon class="st2" points="0,55 0,72.8 8.9,63.9 	"/>
	<polygon class="st2" points="0,27.2 0,45 8.9,36.1 	"/>
	<polygon class="st2" points="86.7,31.7 100,18.4 100,5 80,25 	"/>
	<polygon class="st2" points="68.3,86.7 81.6,100 95,100 75,80 	"/>
	<polygon class="st2" points="70,75 50,55 30,75 36.7,81.7 50,68.4 63.3,81.7 	"/>
	<polygon class="st2" points="25,80 5,100 18.4,100 31.7,86.7 	"/>
	
		<rect x="43.7" y="79.8" transform="matrix(0.7071 -0.7071 0.7071 0.7071 -46.2368 60.5725)" class="st2" width="12.6" height="12.6"/>
	<polygon class="st2" points="86.7,68.3 80,75 100,95 100,81.6 	"/>
	<polygon class="st2" points="63.9,91.1 55,100 72.8,100 	"/>
	<polygon class="st2" points="45,50 25,30 18.3,36.7 31.6,50 18.3,63.3 25,70 	"/>
	<polygon class="st2" points="13.3,68.3 0,81.6 0,95 20,75 	"/>
	<polygon class="st2" points="70,25 63.3,18.3 50,31.6 36.7,18.3 30,25 50,45 	"/>
	<polygon class="st2" points="81.7,63.3 68.4,50 81.7,36.7 75,30 55,50 75,70 	"/>
	<polygon class="st2" points="0,5 0,18.4 13.3,31.7 20,25 	"/>
	<polygon class="st2" points="27.2,100 45,100 36.1,91.1 	"/>
	<polygon class="st2" points="45,0 27.2,0 36.1,8.9 	"/>
	<polygon class="st2" points="31.7,13.3 18.4,0 5,0 25,20 	"/>
	<polygon class="st2" points="95,0 81.6,0 68.3,13.3 75,20 	"/>
	<polygon class="st2" points="72.8,0 55,0 63.9,8.9 	"/>
	<rect x="43.7" y="7.6" transform="matrix(0.7071 -0.7071 0.7071 0.7071 4.8157 39.426)" class="st2" width="12.6" height="12.6"/>
</g>
</svg>
