<?xml version="1.0" encoding="UTF-8"?>
<svg width="283px" height="158px" viewBox="0 0 283 158" version="1.1" xmlns="http://www.w3.org/2000/svg" xmlns:xlink="http://www.w3.org/1999/xlink">
    <!-- Generator: Sketch 44.1 (41455) - http://www.bohemiancoding.com/sketch -->
    <title>Page 1</title>
    <desc>Created with Sketch.</desc>
    <defs>
        <polygon id="path-1" points="78.169863 0.291781967 78.169863 55.3055689 0.280723288 55.3055689 0.280723288 0.291781967 78.169863 0.291781967"></polygon>
    </defs>
    <g id="Page-1" stroke="none" stroke-width="1" fill="none" fill-rule="evenodd">
        <g id="Desktop-HD" transform="translate(-37.000000, -34.000000)">
            <g id="Sidebar-Navigation" transform="translate(-8.000000, 0.000000)">
                <g id="Page-1" transform="translate(45.000000, 33.000000)">
                    <path d="M25.6249699,137.795944 L234.773463,137.795944" id="Stroke-1" stroke="#7D5A41" stroke-width="1.5"></path>
                    <g id="Group-30" transform="translate(0.000000, 0.446803)">
                        <path d="M100.741414,138.22112 C101.873523,137.568398 102.970619,137.11771 104.031405,136.867759 C105.69261,136.369152 106.658729,136.040202 106.931058,135.883497 C107.475715,135.568792 107.632628,135.211349 107.4005,134.811169 C107.301943,134.638923 107.117797,134.487398 106.850656,134.3553 C107.541852,134.128661 108.181176,134.03671 108.769925,134.079448 C109.358674,134.122185 110.331277,134.324218 111.687733,134.686841 C112.319277,134.820234 112.762784,134.811169 113.020847,134.66353 C113.437121,134.422644 113.442309,133.95253 113.036409,133.250595 C113.98956,133.179366 115.041268,133.41248 116.194126,133.949939 C117.095405,134.385087 117.84366,134.737349 118.437596,135.005431 C118.888884,135.223005 119.242911,135.256677 119.500975,135.107743 C119.873158,134.892759 119.919843,134.493874 119.639733,133.911087 C120.735532,134.615611 121.666637,135.348628 122.431752,136.110136 C122.985487,136.57248 123.435478,136.704579 123.779131,136.506431 C124.065724,136.341956 124.170765,136.042792 124.092957,135.610234 C125.956464,136.751202 127.408884,138.222415 128.451514,140.026464 C129.189395,141.300825 129.291843,142.588136 128.76145,143.885808 C128.520245,144.559251 128.470966,145.01771 128.611021,145.261185 C128.767934,145.533152 129.020811,145.697628 129.369651,145.754611 C129.717195,145.811595 130.538071,145.849152 131.829688,145.868579 C133.685414,145.904841 134.792884,145.820661 135.152099,145.613448 C135.395898,145.473579 135.547624,145.298743 135.60987,145.09153 C135.67082,144.884316 135.714911,144.488021 135.738254,143.901349 C135.845889,141.738562 136.036519,140.03553 136.310144,138.788366 C136.420373,138.15248 136.39314,137.691431 136.227149,137.405218 C136.085797,137.161743 135.900354,137.020579 135.668226,136.983021 C135.434802,136.945464 135.085962,137.003743 134.621706,137.156562 C133.704866,137.455726 132.9605,137.532136 132.387313,137.385792 C131.815423,137.238152 131.213706,136.80171 130.584756,136.076464 C129.95451,135.351218 129.064902,134.127366 127.915934,132.403611 C128.415204,132.439874 128.79387,132.384185 129.051934,132.235251 C129.511003,131.971054 129.709414,131.388267 129.647167,130.488185 C129.574546,129.270808 129.570656,128.256759 129.636793,127.444743 C129.70293,126.634021 129.849468,125.762431 130.075112,124.829972 C130.49787,125.560398 130.951752,125.784448 131.43935,125.503415 C131.611825,125.404989 131.749286,125.253464 131.851733,125.051431 C131.954181,124.849398 132.065706,124.569661 132.185012,124.214808 C132.496245,122.966349 132.995514,121.770989 133.684117,120.630021 C134.371423,119.489054 137.037651,115.463939 137.927258,114.721857 C137.905213,115.078005 136.955953,117.703136 136.948172,117.950497 C136.922236,118.700349 136.638236,119.323284 137.503204,119.0293 C137.753487,118.943825 137.972647,118.701644 138.224226,118.441333 C138.659953,117.903874 139.336884,117.14107 140.256318,116.152923 C140.974747,115.280038 141.846199,114.52112 142.86808,113.874874 C142.725432,114.356644 142.746181,114.75553 142.927733,115.070234 C143.102802,115.371989 143.345304,115.527398 143.657834,115.537759 C144.041688,115.507972 145.347569,114.544431 146.96987,113.646939 C148.085121,113.058972 151.056099,110.828841 152.166163,110.462333 C151.996281,112.087661 149.575149,113.696152 149.6763,116.922202 C149.763185,118.064464 149.947332,118.880366 150.228738,119.366021 C150.40251,119.66648 150.62945,119.869808 150.910857,119.976005 C150.712446,120.119759 151.480153,120.131415 151.92366,119.573234 C152.036482,119.430775 153.029834,117.558087 153.150437,117.335333 C153.632847,118.832448 152.618747,122.656825 152.220628,124.546349 C151.897724,125.97353 151.718765,126.854185 151.683752,127.189611 C151.648738,127.525038 151.692829,127.80089 151.817322,128.015874 C152.089651,128.487284 152.534455,128.546857 153.151733,128.19071 C153.294382,128.107825 153.429249,128.011989 153.556336,127.899316 C153.52651,129.005316 153.313834,130.025841 152.917012,130.96089 C152.805487,131.196595 152.42682,131.996956 151.782309,133.361972 C151.54629,133.880005 151.515167,134.289251 151.688939,134.58971 C151.838071,134.847431 152.048153,135.079251 152.320482,135.285169 C152.905341,135.768234 153.330692,136.1723 153.59524,136.497366 C152.853468,137.001152 152.146711,137.446661 151.472373,137.835185 C150.641121,138.315661 149.905834,138.680874 149.269103,138.93471 C148.633669,139.224808 148.308172,139.373743 148.293907,139.381513 C148.050108,139.522677 147.884117,139.714349 147.794637,139.95653 C147.705158,140.19871 147.719423,140.420169 147.834838,140.619611 C147.925615,140.777611 148.018984,140.905825 148.113651,141.002956 C146.414838,141.86807 144.789943,142.24753 143.236373,142.140038 C141.684099,142.033841 140.614236,141.471775 140.025487,140.455136 C139.868574,140.183169 139.741487,139.846448 139.64293,139.444972 C139.580683,139.271431 139.508062,139.112136 139.425067,138.968382 C139.209797,138.596693 138.908939,138.521579 138.521195,138.745628 C138.177542,138.943775 137.923368,139.281792 137.758674,139.757087 C137.260701,140.846251 137.070071,142.054562 137.186784,143.380726 C137.303496,144.70689 137.709395,145.97089 138.404482,147.174021 C138.661249,147.618234 138.369468,147.964021 139.084007,148.983251 C139.797249,150.003775 140.353578,152.301251 141.226327,153.516038 L140.90861,153.834628 C140.627204,153.48107 140.306893,153.060169 139.947679,152.570628 C139.588464,152.081087 139.308354,151.711989 139.108647,151.464628 C137.963569,149.948087 137.09082,148.934038 136.489103,148.42248 C135.886089,147.909628 135.140427,147.578087 134.248226,147.422677 C133.451989,147.271152 132.3523,147.218054 130.945268,147.265972 C128.967642,147.317775 127.749943,147.475775 127.290875,147.739972 C126.875898,147.979562 126.721578,148.574005 126.831806,149.5233 C126.932957,150.22912 126.949816,150.810611 126.881085,151.270366 C126.812354,151.73012 126.634692,152.12771 126.351989,152.463136 C126.067989,152.798562 125.653012,153.123628 125.108354,153.437038 C123.444555,154.396693 121.494163,155.254038 119.255879,156.010366 C119.652701,155.475497 119.740884,155.014448 119.516537,154.628513 C119.310345,154.27107 118.843496,154.043136 118.118583,153.946005 C116.673943,153.728431 115.583332,153.527693 114.84545,153.341202 C114.107569,153.156005 113.269834,152.865907 112.333542,152.469611 C112.624026,152.474792 112.854857,152.428169 113.026035,152.328448 C113.241304,152.20412 113.386546,152.025398 113.461761,151.790989 C113.535679,151.557874 113.511039,151.33253 113.387843,151.117546 C113.238711,150.859825 112.879496,150.618939 112.308902,150.393595 C110.708647,149.674825 109.686765,149.181398 109.244555,148.910726 C108.801048,148.641349 108.30956,148.203611 107.768793,147.600103 C108.327715,147.277628 108.47166,146.880038 108.198035,146.407333 C108.065761,146.178103 107.435514,145.701513 106.309889,144.976267 C105.841742,144.730202 105.241322,144.302825 104.508628,143.695431 C104.895076,143.471382 105.140172,143.202005 105.243916,142.88471 C105.34766,142.567415 105.31135,142.25789 105.137578,141.957431 C104.765395,141.31248 104.069012,140.703792 103.047131,140.12748 C102.026546,139.551169 100.784208,139.731185 99.5976329,139.49807 C98.229505,139.193726 100.698619,138.245726 100.741414,138.22112" id="Fill-2" fill="#FAF7EE"></path>
                        <path d="M100.741414,138.22112 C101.873523,137.568398 102.970619,137.11771 104.031405,136.867759 C105.69261,136.369152 106.658729,136.040202 106.931058,135.883497 C107.475715,135.568792 107.632628,135.211349 107.4005,134.811169 C107.301943,134.638923 107.117797,134.487398 106.850656,134.3553 C107.541852,134.128661 108.181176,134.03671 108.769925,134.079448 C109.358674,134.122185 110.331277,134.324218 111.687733,134.686841 C112.319277,134.820234 112.762784,134.811169 113.020847,134.66353 C113.437121,134.422644 113.442309,133.95253 113.036409,133.250595 C113.98956,133.179366 115.041268,133.41248 116.194126,133.949939 C117.095405,134.385087 117.84366,134.737349 118.437596,135.005431 C118.888884,135.223005 119.242911,135.256677 119.500975,135.107743 C119.873158,134.892759 119.919843,134.493874 119.639733,133.911087 C120.735532,134.615611 121.666637,135.348628 122.431752,136.110136 C122.985487,136.57248 123.435478,136.704579 123.779131,136.506431 C124.065724,136.341956 124.170765,136.042792 124.092957,135.610234 C125.956464,136.751202 127.408884,138.222415 128.451514,140.026464 C129.189395,141.300825 129.291843,142.588136 128.76145,143.885808 C128.520245,144.559251 128.470966,145.01771 128.611021,145.261185 C128.767934,145.533152 129.020811,145.697628 129.369651,145.754611 C129.717195,145.811595 130.538071,145.849152 131.829688,145.868579 C133.685414,145.904841 134.792884,145.820661 135.152099,145.613448 C135.395898,145.473579 135.547624,145.298743 135.60987,145.09153 C135.67082,144.884316 135.714911,144.488021 135.738254,143.901349 C135.845889,141.738562 136.036519,140.03553 136.310144,138.788366 C136.420373,138.15248 136.39314,137.691431 136.227149,137.405218 C136.085797,137.161743 135.900354,137.020579 135.668226,136.983021 C135.434802,136.945464 135.085962,137.003743 134.621706,137.156562 C133.704866,137.455726 132.9605,137.532136 132.387313,137.385792 C131.815423,137.238152 131.213706,136.80171 130.584756,136.076464 C129.95451,135.351218 129.064902,134.127366 127.915934,132.403611 C128.415204,132.439874 128.79387,132.384185 129.051934,132.235251 C129.511003,131.971054 129.709414,131.388267 129.647167,130.488185 C129.574546,129.270808 129.570656,128.256759 129.636793,127.444743 C129.70293,126.634021 129.849468,125.762431 130.075112,124.829972 C130.49787,125.560398 130.951752,125.784448 131.43935,125.503415 C131.611825,125.404989 131.749286,125.253464 131.851733,125.051431 C131.954181,124.849398 132.065706,124.569661 132.185012,124.214808 C132.496245,122.966349 132.995514,121.770989 133.684117,120.630021 C134.371423,119.489054 137.037651,115.463939 137.927258,114.721857 C137.905213,115.078005 136.955953,117.703136 136.948172,117.950497 C136.922236,118.700349 136.638236,119.323284 137.503204,119.0293 C137.753487,118.943825 137.972647,118.701644 138.224226,118.441333 C138.659953,117.903874 139.336884,117.14107 140.256318,116.152923 C140.974747,115.280038 141.846199,114.52112 142.86808,113.874874 C142.725432,114.356644 142.746181,114.75553 142.927733,115.070234 C143.102802,115.371989 143.345304,115.527398 143.657834,115.537759 C144.041688,115.507972 145.347569,114.544431 146.96987,113.646939 C148.085121,113.058972 151.056099,110.828841 152.166163,110.462333 C151.996281,112.087661 149.575149,113.696152 149.6763,116.922202 C149.763185,118.064464 149.947332,118.880366 150.228738,119.366021 C150.40251,119.66648 150.62945,119.869808 150.910857,119.976005 C150.712446,120.119759 151.480153,120.131415 151.92366,119.573234 C152.036482,119.430775 153.029834,117.558087 153.150437,117.335333 C153.632847,118.832448 152.618747,122.656825 152.220628,124.546349 C151.897724,125.97353 151.718765,126.854185 151.683752,127.189611 C151.648738,127.525038 151.692829,127.80089 151.817322,128.015874 C152.089651,128.487284 152.534455,128.546857 153.151733,128.19071 C153.294382,128.107825 153.429249,128.011989 153.556336,127.899316 C153.52651,129.005316 153.313834,130.025841 152.917012,130.96089 C152.805487,131.196595 152.42682,131.996956 151.782309,133.361972 C151.54629,133.880005 151.515167,134.289251 151.688939,134.58971 C151.838071,134.847431 152.048153,135.079251 152.320482,135.285169 C152.905341,135.768234 153.330692,136.1723 153.59524,136.497366 C152.853468,137.001152 152.146711,137.446661 151.472373,137.835185 C150.641121,138.315661 149.905834,138.680874 149.269103,138.93471 C148.633669,139.224808 148.308172,139.373743 148.293907,139.381513 C148.050108,139.522677 147.884117,139.714349 147.794637,139.95653 C147.705158,140.19871 147.719423,140.420169 147.834838,140.619611 C147.925615,140.777611 148.018984,140.905825 148.113651,141.002956 C146.414838,141.86807 144.789943,142.24753 143.236373,142.140038 C141.684099,142.033841 140.614236,141.471775 140.025487,140.455136 C139.868574,140.183169 139.741487,139.846448 139.64293,139.444972 C139.580683,139.271431 139.508062,139.112136 139.425067,138.968382 C139.209797,138.596693 138.908939,138.521579 138.521195,138.745628 C138.177542,138.943775 137.923368,139.281792 137.758674,139.757087 C137.260701,140.846251 137.070071,142.054562 137.186784,143.380726 C137.303496,144.70689 137.709395,145.97089 138.404482,147.174021 C138.661249,147.618234 138.369468,147.964021 139.084007,148.983251 C139.797249,150.003775 140.353578,152.301251 141.226327,153.516038 L140.90861,153.834628 C140.627204,153.48107 140.306893,153.060169 139.947679,152.570628 C139.588464,152.081087 139.308354,151.711989 139.108647,151.464628 C137.963569,149.948087 137.09082,148.934038 136.489103,148.42248 C135.886089,147.909628 135.140427,147.578087 134.248226,147.422677 C133.451989,147.271152 132.3523,147.218054 130.945268,147.265972 C128.967642,147.317775 127.749943,147.475775 127.290875,147.739972 C126.875898,147.979562 126.721578,148.574005 126.831806,149.5233 C126.932957,150.22912 126.949816,150.810611 126.881085,151.270366 C126.812354,151.73012 126.634692,152.12771 126.351989,152.463136 C126.067989,152.798562 125.653012,153.123628 125.108354,153.437038 C123.444555,154.396693 121.494163,155.254038 119.255879,156.010366 C119.652701,155.475497 119.740884,155.014448 119.516537,154.628513 C119.310345,154.27107 118.843496,154.043136 118.118583,153.946005 C116.673943,153.728431 115.583332,153.527693 114.84545,153.341202 C114.107569,153.156005 113.269834,152.865907 112.333542,152.469611 C112.624026,152.474792 112.854857,152.428169 113.026035,152.328448 C113.241304,152.20412 113.386546,152.025398 113.461761,151.790989 C113.535679,151.557874 113.511039,151.33253 113.387843,151.117546 C113.238711,150.859825 112.879496,150.618939 112.308902,150.393595 C110.708647,149.674825 109.686765,149.181398 109.244555,148.910726 C108.801048,148.641349 108.30956,148.203611 107.768793,147.600103 C108.327715,147.277628 108.47166,146.880038 108.198035,146.407333 C108.065761,146.178103 107.435514,145.701513 106.309889,144.976267 C105.841742,144.730202 105.241322,144.302825 104.508628,143.695431 C104.895076,143.471382 105.140172,143.202005 105.243916,142.88471 C105.34766,142.567415 105.31135,142.25789 105.137578,141.957431 C104.765395,141.31248 104.069012,140.703792 103.047131,140.12748 C102.026546,139.551169 100.784208,139.731185 99.5976329,139.49807 C98.229505,139.193726 100.698619,138.245726 100.741414,138.22112 Z" id="Stroke-4" stroke="#FAF7EE" stroke-width="2.57"></path>
                        <path d="M149.0917,138.627128 C149.727134,138.374587 150.463719,138.008079 151.293673,137.528898 C151.969308,137.140374 152.676066,136.69357 153.417837,136.189784 C153.153289,135.866013 152.727938,135.461948 152.143079,134.977587 C151.870751,134.771669 151.659372,134.539849 151.510239,134.282128 C151.336468,133.981669 151.368888,133.572423 151.603609,133.05439 C152.249417,131.690669 152.628084,130.889013 152.739609,130.653308 C153.135134,129.718259 153.34781,128.697734 153.378933,127.59303 C153.253143,127.704407 153.116979,127.801538 152.973034,127.883128 C152.357052,128.239275 151.912248,128.180997 151.63992,127.708292 C151.51413,127.493308 151.471335,127.218751 151.505052,126.883325 C151.541363,126.547898 151.719025,125.665948 152.041929,124.240062 C152.441344,122.349243 153.454148,118.526161 152.971737,117.029046 C152.851134,117.250505 151.859079,119.123193 151.746258,119.265652 C151.302751,119.825128 150.533746,119.812177 150.733454,119.668423 C150.453344,119.563521 150.225107,119.360193 150.050038,119.059734 C149.768632,118.572784 149.585783,117.758177 149.4976,116.61462 C149.396449,113.389866 151.818879,111.780079 151.987463,110.154751 C150.878696,110.522554 147.907719,112.75139 146.792468,113.339357 C145.170166,114.236849 143.864285,115.20039 143.480431,115.231472 C143.167901,115.221111 142.925399,115.064407 142.750331,114.763948 C142.568778,114.449243 142.548029,114.050357 142.689381,113.567292 C141.6675,114.213538 140.797344,114.973751 140.078915,115.846636 C139.159481,116.834784 138.481253,117.597587 138.045527,118.135046 C137.796541,118.394062 137.576084,118.636243 137.325801,118.721718 C136.460833,119.016997 136.744833,118.394062 136.770769,117.642915 C136.779847,117.395554 137.726513,114.771718 137.749856,114.414275 C136.858952,115.156357 134.19402,119.181472 133.505417,120.323734 C132.816815,121.464702 132.317545,122.658767 132.007609,123.907226 C131.887006,124.263374 131.775481,124.541816 131.673034,124.743849 C131.570586,124.945882 131.434422,125.097407 131.261947,125.195833 C130.774349,125.478161 130.319171,125.252816 129.896413,124.52239 C129.670769,125.454849 129.525527,126.326439 129.45939,127.137161 C129.393253,127.949177 129.395847,128.963226 129.471061,130.181898 C129.532011,131.08198 129.3336,131.663472 128.873235,131.927669 C128.616468,132.076603 128.237801,132.133587 127.737235,132.09603 C128.888796,133.819784 129.77581,135.044931 130.407353,135.768882 C131.035006,136.495423 131.63802,136.93057 132.208614,137.07821 C132.783098,137.225849 133.527463,137.149439 134.444303,136.850275 C134.908559,136.696161 135.257399,136.637882 135.490824,136.675439 C135.721655,136.714292 135.909691,136.854161 136.048449,137.097636 C136.21444,137.383849 136.24297,137.846193 136.132742,138.482079 C135.859116,139.727948 135.667189,141.432275 135.559554,143.593767 C135.537509,144.180439 135.494714,144.576734 135.432468,144.783948 C135.370221,144.992456 135.218495,145.165997 134.973399,145.305866 C134.615481,145.513079 133.506714,145.598554 131.652285,145.560997 C130.360668,145.542866 129.541089,145.504013 129.190952,145.44703 C128.843408,145.390046 128.589235,145.226866 128.432321,144.953603 C128.293563,144.711423 128.342842,144.251669 128.585344,143.578226 C129.11444,142.280554 129.011993,140.994538 128.274111,139.718882 C127.231481,137.914833 125.777764,136.44362 123.915554,135.302652 C123.993363,135.73521 123.887025,136.034374 123.601728,136.200144 C123.258075,136.398292 122.808084,136.266193 122.254349,135.802554 C121.489235,135.041046 120.55813,134.30803 119.462331,133.603505 C119.741143,134.186292 119.695755,134.585177 119.323573,134.800161 C119.065509,134.949095 118.710184,134.915423 118.260194,134.697849 C117.666258,134.429767 116.916705,134.0788 116.016723,133.643652 C114.862568,133.104898 113.812157,132.871784 112.859006,132.944308 C113.264906,133.644948 113.258422,134.116357 112.844742,134.355948 C112.586678,134.504882 112.141874,134.512652 111.510331,134.380554 C110.153874,134.016636 109.181271,133.814603 108.592522,133.771866 C108.002477,133.729128 107.363153,133.821079 106.673253,134.047718 C106.940395,134.179816 107.124541,134.331341 107.223098,134.503587 C107.455226,134.905062 107.297016,135.262505 106.753655,135.575915 C106.481326,135.733915 105.513911,136.06157 103.852705,136.561472 C102.793216,136.810128 101.694824,137.260816 100.564011,137.913538 C100.521216,137.938144 98.0533991,138.886144 99.4189333,139.190489 C100.605509,139.423603 101.847847,139.244882 102.869728,139.819898 C103.891609,140.39621 104.587993,141.006193 104.960175,141.649849 C105.135244,141.950308 105.170258,142.259833 105.066513,142.577128 C104.962769,142.894423 104.716376,143.165095 104.329929,143.387849 C105.06392,143.995243 105.66434,144.42262 106.132486,144.668685 C107.256815,145.393931 107.888358,145.870521 108.020632,146.099751 C108.294258,146.572456 108.150312,146.970046 107.59139,147.292521 C108.132157,147.897325 108.623646,148.333767 109.067153,148.604439 C109.509363,148.873816 110.531244,149.368538 112.1315,150.087308 C112.700796,150.312652 113.061308,150.553538 113.21044,150.811259 C113.334933,151.026243 113.358276,151.250292 113.284358,151.484702 C113.209143,151.719111 113.063901,151.897833 112.848632,152.020866 C112.677454,152.120587 112.445326,152.16721 112.156139,152.163325 C113.091134,152.558325 113.930166,152.849718 114.668047,153.034915 C115.404632,153.220111 116.495244,153.420849 117.94118,153.638423 C118.666093,153.735554 119.131646,153.963489 119.340431,154.320931 C119.562184,154.708161 119.476595,155.16921 119.07718,155.702784 C121.31676,154.947751 123.268449,154.089111 124.929655,153.130751 C125.475609,152.816046 125.889289,152.49098 126.174586,152.155554 C126.458586,151.820128 126.634952,151.422538 126.702385,150.962784 C126.772413,150.504325 126.754258,149.921538 126.653107,149.215718 C126.544175,148.267718 126.697198,147.673275 127.114769,147.433685 C127.571244,147.168193 128.791536,147.010193 130.767865,146.95839 C132.174897,146.911767 133.275883,146.96357 134.070824,147.11639 C134.961728,147.270505 135.709984,147.603341 136.3117,148.114898 C136.912121,148.627751 137.784869,149.6418 138.931244,151.158341 C139.129655,151.405702 139.409764,151.773505 139.770276,152.263046 C140.12949,152.752587 140.449801,153.174784 140.731207,153.528341 L141.050221,153.208456 C140.176175,151.993669 139.61855,149.697489 138.906605,148.676964 C138.192066,147.656439 138.483847,147.310652 138.228376,146.866439 C137.531993,145.664603 137.124796,144.399308 137.009381,143.073144 C136.892668,141.74698 137.082002,140.539964 137.581271,139.4508 C137.745965,138.97421 137.998842,138.636193 138.343792,138.438046 C138.731536,138.215292 139.031098,138.289111 139.246367,138.662095 C139.330659,138.804554 139.401984,138.963849 139.46423,139.13739 C139.562787,139.538866 139.691171,139.875587 139.849381,140.147554 C140.435536,141.164193 141.505399,141.726259 143.060267,141.832456 C144.612541,141.939948 146.237436,141.560489 147.934952,140.696669 C147.840285,140.598243 147.749509,140.471325 147.657436,140.313325 C147.54202,140.112587 147.529052,139.891128 147.615938,139.648948 C147.706714,139.406767 147.872705,139.215095 148.117801,139.073931 C148.130769,139.066161 148.456267,138.917226 149.0917,138.627128 M112.462184,141.506095 C114.014458,142.195079 115.201034,143.229849 116.748121,143.771193 C118.293911,144.311243 120.064047,144.324193 121.333618,144.651849 C122.601892,144.979505 123.976504,145.261833 125.45097,145.500128 C125.807591,145.619275 126.061764,145.747489 126.218678,145.887357 C126.277034,145.987079 126.271847,146.119177 126.204413,146.282357 C126.136979,146.445538 126.044906,146.5608 125.930787,146.626849 C125.785545,146.708439 125.614367,146.742111 125.412066,146.72398 C125.212358,146.707144 124.688449,146.626849 123.84034,146.48439 C114.566897,145.255357 113.451646,143.540669 108.591226,140.78862 C107.27497,140.097046 106.556541,139.651538 106.439828,139.4508 C106.408705,139.393816 106.399627,139.312226 106.416486,139.207325 C106.432047,139.103718 106.476139,139.029898 106.546166,138.988456 C106.748468,138.873193 106.963737,138.882259 107.193271,139.016948 C109.150148,139.988259 110.907317,140.818407 112.462184,141.506095 M111.19002,136.654718 C111.362495,136.554997 111.927901,136.937046 112.883646,137.798275 C114.295865,139.082997 115.114148,139.91962 115.338495,140.305554 C115.561545,140.692784 115.527828,140.968636 115.241235,141.134407 C114.955938,141.298882 114.671938,141.187505 114.386641,140.79639 C114.218057,140.569751 113.7136,139.926095 112.869381,138.865423 C112.622988,138.568849 112.399938,138.316308 112.201527,138.10521 C112.001819,137.895407 111.825454,137.702439 111.665947,137.526308 C111.507737,137.350177 111.350824,137.181816 111.200395,137.021226 C111.09276,136.834734 111.088869,136.712997 111.19002,136.654718 M118.666093,137.556095 C118.95528,137.809931 119.384522,138.229538 119.953819,138.8188 C120.682623,139.581603 121.298605,140.275767 121.804358,140.901292 C122.308815,141.526816 122.690075,142.061685 122.946842,142.505898 C123.193235,142.93457 123.145253,143.249275 122.802897,143.447423 C122.600595,143.562685 122.413856,143.56657 122.236194,143.459079 C122.057235,143.351587 121.828997,143.101636 121.546294,142.711816 C120.87455,141.684816 120.384358,140.936259 120.075719,140.466144 C119.665929,139.825079 119.070696,138.993636 118.29002,137.973111 C118.201837,137.852669 118.133107,137.768489 118.086422,137.719275 C118.03844,137.670062 117.998239,137.63639 117.968413,137.615669 C117.885417,137.471915 117.899682,137.367013 118.016395,137.300964 C118.157746,137.218079 118.375609,137.303554 118.666093,137.556095 M110.614239,146.666997 C111.317107,146.661816 112.162623,146.569866 113.14949,146.392439 C114.137655,146.215013 114.941673,146.003915 115.564139,145.759144 C116.058221,145.588193 116.387609,145.646472 116.5536,145.932685 C116.728668,146.233144 116.636595,146.48698 116.277381,146.694193 C115.903901,146.909177 115.309965,147.080128 114.494276,147.205751 C113.678586,147.332669 112.892723,147.385767 112.13539,147.363751 C110.871006,147.328784 110.177216,147.204456 110.052723,146.989472 C109.987883,146.87421 110.011226,146.784849 110.126641,146.717505 C110.199262,146.677357 110.361363,146.659226 110.614239,146.666997 M122.508522,147.797603 C122.631719,148.012587 122.562988,148.257357 122.302331,148.53321 C122.040376,148.807767 121.486641,149.188521 120.641125,149.676767 C118.976029,150.635128 117.454879,151.045669 116.075079,150.9058 C115.889637,150.917456 115.776815,150.886374 115.73402,150.815144 C115.684742,150.729669 115.704194,150.66103 115.788486,150.611816 C115.846842,150.579439 115.936321,150.566489 116.054331,150.574259 C117.007481,150.368341 118.020285,149.956505 119.094038,149.336161 C119.997911,148.815538 120.860285,148.241816 121.683755,147.613702 C122.04297,147.407784 122.317892,147.468652 122.508522,147.797603 M136.165162,130.702521 C136.488066,131.260702 136.730568,131.646636 136.891372,131.85903 L137.126093,132.26698 C137.384157,132.711193 137.34655,133.027193 137.017162,133.21757 C136.831719,133.325062 136.638495,133.28362 136.442678,133.090652 C136.24686,132.89898 135.965454,132.488439 135.601052,131.857734 C134.988961,130.798357 134.531189,130.939521 133.865929,128.55139 C133.515792,127.453161 133.644175,126.572505 133.655847,125.764374 C133.676595,125.406931 133.754404,125.191948 133.88149,125.116833 C133.969673,125.06762 134.044888,125.099997 134.111025,125.213964 C134.178458,125.329226 134.212175,125.423767 134.216066,125.497587 C134.523408,127.249833 135.173107,128.983948 136.165162,130.702521 M140.753253,118.75021 C140.436833,120.516702 139.793618,122.118718 140.728614,124.60657 C140.793454,125.084456 140.703974,125.39398 140.461472,125.533849 C140.189143,125.690554 139.957016,125.605079 139.767682,125.276128 C139.635408,125.046898 139.354002,124.812489 139.307317,124.084652 C139.260632,123.358111 139.125764,122.713161 139.186714,121.9918 C139.271006,121.142226 139.745637,120.038816 139.954422,119.325226 C140.163207,118.612931 140.347353,118.211456 140.505563,118.1208 C140.605417,118.062521 140.688413,118.091013 140.753253,118.20498 C140.788267,118.263259 140.788267,118.44457 140.753253,118.75021 M137.873052,134.771669 C137.928815,134.520423 138.103883,134.023111 138.400851,133.279734 C139.070002,131.594833 139.316395,129.479964 140.582075,126.840587 C141.668796,124.457636 143.381874,122.385505 144.270184,120.717439 C145.161089,119.049374 145.726495,118.144111 145.971591,118.004243 C146.172595,117.887685 146.325618,117.923948 146.433253,118.109144 C146.492906,118.210161 146.47086,118.373341 146.3736,118.601275 C146.24392,118.773521 146.051993,119.121898 145.804303,119.647702 C145.152011,120.901341 142.291262,125.676308 141.395171,127.699226 C139.587426,131.645341 139.392906,133.52062 139.165965,134.899882 C139.014239,135.331144 138.874184,135.583685 138.744504,135.6588 C138.415116,135.849177 138.149271,135.771472 137.95086,135.428275 C137.843226,135.243079 137.818586,135.022915 137.873052,134.771669 M147.766367,124.629882 C148.349929,124.149407 148.869947,123.64562 149.327719,123.113341 C149.523536,122.924259 149.628577,122.825833 149.642842,122.816767 C149.758258,122.750718 149.838659,122.761079 149.889235,122.846554 C149.946294,122.946275 149.904796,123.153489 149.760851,123.465603 C149.015189,124.791767 147.820833,125.930144 146.171299,126.880734 C144.82392,127.657784 144.030276,127.839095 143.790367,127.423374 C143.641235,127.165652 143.6957,126.962325 143.953764,126.81339 C144.039353,126.764177 144.161253,126.712374 144.32076,126.65798 C144.915993,126.430046 145.45676,126.174915 145.944358,125.893882 C146.575901,125.529964 147.181509,125.109062 147.766367,124.629882 M144.000449,134.128013 C145.093655,133.852161 146.691317,132.889915 147.934952,132.362816 C148.29676,132.193161 148.518513,132.18021 148.601509,132.323964 C148.709143,132.509161 148.482203,132.764292 147.924577,133.086767 C146.619993,133.837915 145.441198,134.647341 144.144395,135.03198 C142.847591,135.417915 141.753089,135.307833 141.108577,135.183505 C140.838842,135.148538 140.653399,135.043636 140.554842,134.872685 C140.379774,134.572226 140.458879,134.326161 140.789563,134.135784 C140.889417,134.0788 141.028175,134.055489 141.208431,134.067144 C142.264029,134.011456 142.907244,134.405161 144.000449,134.128013" id="Fill-6" fill="#7D5A41"></path>
                        <path d="M46.1559653,94.0580475 C46.3906868,94.0580475 46.6850612,94.0412115 47.0377918,94.0088344 C47.3905224,93.9751623 47.7652986,93.8961623 48.1621205,93.7705393 C48.5589425,93.6449164 48.951874,93.4636049 49.3422119,93.2253098 C49.731253,92.9883098 50.0800932,92.6645393 50.3887324,92.2552934 C50.6973717,91.8460475 50.9515452,91.3331951 51.1499562,90.7193262 C51.3483671,90.1041623 51.4469242,89.3620803 51.4469242,88.4891951 C51.4469242,87.6448016 51.3548511,86.8884738 51.1720018,86.2202115 C50.9878557,85.5532443 50.6869973,84.9859984 50.2681297,84.5171787 C49.8492621,84.048359 49.308495,83.6909164 48.6471251,83.4461459 C47.9857553,83.2026705 47.1700658,83.0796377 46.2000566,83.0796377 L42.6727507,83.0796377 L42.6727507,94.0580475 L46.1559653,94.0580475 Z M45.9796,81.4944574 C48.4046228,81.4944574 50.2707233,82.0500475 51.5791982,83.1586377 C52.8876731,84.268523 53.5412621,85.9599 53.5412621,88.2327689 C53.5412621,89.4216541 53.3947233,90.4745557 53.1003489,91.3927689 C52.8059744,92.310982 52.3507963,93.0841459 51.7335178,93.7109656 C51.1162393,94.3390803 50.3303763,94.8182607 49.374632,95.1485066 C48.4188877,95.4787525 47.2880749,95.6432279 45.9796,95.6432279 L40.5784128,95.6432279 L40.5784128,81.4944574 L45.9796,81.4944574 Z M87.4721297,81.4944574 L87.4721297,83.0796377 L78.6979562,83.0796377 L78.6979562,87.5787525 L86.8768968,87.5787525 L86.8768968,89.1639328 L78.6979562,89.1639328 L78.6979562,94.0580475 L87.5382667,94.0580475 L87.5382667,95.6432279 L76.6023215,95.6432279 L76.6023215,81.4944574 L87.4721297,81.4944574 Z M112.781847,81.4944574 L121.072312,92.9675885 L121.116404,92.9675885 L121.116404,81.4944574 L123.100513,81.4944574 L123.100513,95.6432279 L120.807764,95.6432279 L112.583436,84.2892443 L112.539344,84.2892443 L112.539344,95.6432279 L110.555235,95.6432279 L110.555235,81.4944574 L112.781847,81.4944574 Z M145.323837,83.0796377 L145.323837,81.4944574 L157.911911,81.4944574 L157.911911,83.0796377 L152.665043,83.0796377 L152.665043,95.6432279 L150.570705,95.6432279 L150.570705,83.0796377 L145.323837,83.0796377 Z M186.177043,89.7972279 L183.552312,83.1987852 L183.509518,83.1987852 L180.840696,89.7972279 L186.177043,89.7972279 Z M184.720732,81.4944574 L190.872769,95.6432279 L188.557974,95.6432279 L186.838413,91.3824082 L180.179326,91.3824082 L178.415673,95.6432279 L176.277244,95.6432279 L182.405938,81.4944574 L184.720732,81.4944574 Z M215.014066,81.4944574 L215.014066,94.0580475 L223.347326,94.0580475 L223.347326,95.6432279 L212.919728,95.6432279 L212.919728,81.4944574 L215.014066,81.4944574 Z" id="Fill-8" fill="#7D5A41"></path>
                        <path d="M62.4274795,55.5787016 C62.4274795,56.4308656 60.5704566,57.7583246 56.8590046,59.5623738 C56.156137,59.7113082 55.1018356,59.9884557 53.6973973,60.3886361 C52.2916621,60.9895541 50.8625845,61.5658656 49.4088676,62.1162754 C47.702274,62.8182098 46.1966849,63.167882 44.8933973,63.167882 C44.089379,63.167882 43.6886667,62.7677016 43.6886667,61.9660459 C43.6886667,61.3638328 45.594968,58.6350951 49.4088676,53.7746525 C49.4088676,53.6749311 49.43221,53.5855705 49.4827854,53.5117508 C49.5333607,53.4366361 49.5592968,53.3485705 49.5592968,53.2488492 C49.5592968,52.0962262 48.9809224,51.5186197 47.8280639,51.5186197 C47.1251963,51.5186197 45.7570685,52.5430295 43.5486119,54.6475377 C42.3957534,55.6939639 39.9940731,58.0419475 38.7413607,58.4576689 C37.4899452,58.8746852 33.1365753,62.2924066 32.5646849,62.2924066 C32.5646849,62.2924066 31.2289772,61.525718 32.1471142,60.3756852 C33.0652511,59.2256525 38.185032,57.637882 38.7971233,57.005882 C39.4092146,56.373882 40.7449224,55.9568656 42.4852329,54.3755705 C44.0388037,52.8227672 45.5703288,51.2440623 47.074621,49.6420459 C48.9809224,47.7887836 50.8872237,46.8602098 52.7948219,46.8602098 C53.2953881,46.8602098 53.7609406,47.0738984 54.187589,47.4999803 C54.6129406,47.9260623 54.8256164,48.4130131 54.8256164,48.964718 C54.8256164,50.4178 54.0371598,52.2710623 52.4550594,54.5258 C50.8755525,56.7805377 50.0857991,58.3605377 50.0857991,59.2619148 C50.0857991,59.4613574 50.3114429,59.5623738 50.7627306,59.5623738 C53.6221826,59.5623738 56.6320639,58.5353738 59.7923744,56.4800787 C60.3448128,56.0798984 61.1981096,55.6279148 62.3522648,55.126718 C62.3522648,55.1785213 62.3769041,55.252341 62.4274795,55.3533574 L62.4274795,55.5787016 Z" id="Fill-10" fill="#7D5A41"></path>
                        <path d="M82.1429151,56.1794902 C82.1429151,56.2287033 81.4776548,56.8192607 80.1497279,57.945982 C78.8192073,59.0727033 77.0503671,59.9740803 74.8432073,60.6514082 C72.6360475,61.327441 70.6026594,61.6641623 68.7482301,61.6641623 C65.5360475,61.6641623 63.8294539,59.4612279 63.6310429,55.0527689 C61.7740201,56.9060311 60.3695817,57.8320148 59.4164311,57.8320148 C59.3165772,57.8320148 59.2660018,57.7840967 59.2660018,57.6830803 C59.2660018,57.4836377 59.9688694,56.8063098 61.3733078,55.6536869 C62.9774539,54.3495393 63.85539,53.5996869 64.0058192,53.3976541 C64.4078283,52.9482607 64.8215087,52.1453098 65.2481571,50.9926869 C65.6735087,49.8426541 66.1637005,48.9904902 66.7161388,48.4387852 C68.4214356,46.8354738 69.700084,45.7825721 70.5533808,45.2813754 C71.9578192,44.4305066 73.5386228,44.0044246 75.294495,44.0044246 C78.5546594,44.0044246 80.1860384,44.9563098 80.1860384,46.8600803 C80.1860384,48.0127033 78.9813078,49.5655066 76.5744402,51.5184902 C74.5164128,53.222818 72.7994447,54.3378836 71.4183489,54.8636869 C70.0385498,55.3894902 68.4214356,56.1535885 66.5657096,57.157277 C66.4645589,57.2569984 66.4139836,57.4318344 66.4139836,57.6830803 C66.4139836,58.9872279 67.4929242,59.6360639 69.6508055,59.6360639 C71.7075361,59.6360639 74.303737,59.0105393 77.440705,57.7581951 C80.5750795,56.5058508 82.0664037,55.8790311 81.9172712,55.8790311 C82.0664037,55.8790311 82.1429151,55.9800475 82.1429151,56.1794902 M76.4979288,48.1383262 C76.4979288,47.2356541 75.8923215,46.7836705 74.6785132,46.7836705 C73.4141297,46.7836705 72.3650155,47.0090148 71.5285772,47.4609984 C70.6947324,47.9116869 69.7454721,48.8389656 68.6846868,50.2428344 C67.6226046,51.6467033 67.0922119,52.7216213 67.0922119,53.4740639 C67.0922119,53.6748016 67.2945132,53.8755393 67.6965224,54.074982 C68.5576,54.074982 70.2408511,53.3108836 72.7436822,51.783982 C75.2465132,50.2544902 76.4979288,49.0397033 76.4979288,48.1383262" id="Fill-12" fill="#7D5A41"></path>
                        <path d="M102.459938,56.1794902 C102.459938,56.2287033 101.794678,56.8192607 100.468047,57.945982 C99.1362301,59.0727033 97.36739,59.9740803 95.1602301,60.6514082 C92.9517735,61.327441 90.920979,61.6641623 89.0665498,61.6641623 C85.8530703,61.6641623 84.1477735,59.4612279 83.9493626,55.0527689 C82.0897461,56.9060311 80.6866046,57.8320148 79.7347507,57.8320148 C79.6336,57.8320148 79.5830247,57.7840967 79.5830247,57.6830803 C79.5830247,57.4836377 80.2858922,56.8063098 81.6890338,55.6536869 C83.2957735,54.3495393 84.1724128,53.5996869 84.3241388,53.3976541 C84.7248511,52.9482607 85.1398283,52.1453098 85.5664767,50.9926869 C85.9918283,49.8426541 86.4820201,48.9904902 87.0331616,48.4387852 C88.7384584,46.8354738 90.0171068,45.7825721 90.8717005,45.2813754 C92.274842,44.4305066 93.8556457,44.0044246 95.6128146,44.0044246 C98.872979,44.0044246 100.503061,44.9563098 100.503061,46.8600803 C100.503061,48.0127033 99.2996274,49.5655066 96.8901662,51.5184902 C94.8334356,53.222818 93.1177644,54.3378836 91.7366685,54.8636869 C90.3555726,55.3894902 88.7384584,56.1535885 86.8814356,57.157277 C86.7815817,57.2569984 86.7310064,57.4318344 86.7310064,57.6830803 C86.7310064,58.9872279 87.809947,59.6360639 89.9678283,59.6360639 C92.0245589,59.6360639 94.6207598,59.0105393 97.7564311,57.7581951 C100.892102,56.5058508 102.384723,55.8790311 102.234294,55.8790311 C102.384723,55.8790311 102.459938,55.9800475 102.459938,56.1794902 M96.8162484,48.1383262 C96.8162484,47.2356541 96.2106411,46.7836705 94.9955361,46.7836705 C93.7324493,46.7836705 92.6807416,47.0090148 91.8468968,47.4609984 C91.0130521,47.9116869 90.0637918,48.8389656 89.0017096,50.2428344 C87.9409242,51.6467033 87.4105315,52.7216213 87.4105315,53.4740639 C87.4105315,53.6748016 87.6128329,53.8755393 88.014842,54.074982 C88.8759196,54.074982 90.5565772,53.3108836 93.060705,51.783982 C95.5648329,50.2544902 96.8162484,49.0397033 96.8162484,48.1383262" id="Fill-14" fill="#7D5A41"></path>
                        <path d="M146.333399,55.8031393 L146.333399,56.1035984 C146.333399,56.7045164 144.651445,58.0591721 141.291426,60.1636803 C138.630385,61.8162049 136.549016,63.018041 135.04602,63.7691885 C132.48613,65.0215328 129.826385,65.6483525 127.066787,65.6483525 C125.111207,65.6483525 122.677107,64.8985 119.768376,63.3949098 C115.903901,61.390123 113.899043,60.3385164 113.748614,60.2375 C111.839719,59.0343689 110.361363,57.3326311 109.307061,55.1258115 C108.754623,56.0802869 107.099901,58.5590738 104.340303,62.5660574 C102.131847,65.8231885 100.702769,68.3045656 100.051774,70.0088934 C99.9013443,70.4090738 99.7625863,70.6836311 99.6367963,70.8351557 C99.5136,70.9840902 99.2736913,71.0838115 98.9209607,71.1356148 C98.6213991,70.934877 98.4709699,70.633123 98.4709699,70.2342377 C98.4709699,67.9276967 101.53013,62.6165656 107.65234,54.2995492 C107.099901,54.6505164 106.246605,55.1517131 105.092449,55.8031393 C104.441454,56.0543852 103.411792,56.5063689 102.007353,57.1565 C100.954349,57.7082049 100.277417,57.9827623 99.9765589,57.9827623 C99.724979,57.9827623 99.599189,57.8079262 99.599189,57.4582541 C99.599189,57.3067295 100.151627,56.9298607 101.255207,56.3289426 C103.110933,55.3278443 104.189874,54.7515328 104.490732,54.6013033 C105.494458,53.949877 106.447609,53.1469262 107.348888,52.195041 C108.152906,50.8442705 109.508066,48.9405 111.414367,46.4837295 C112.26507,45.5823525 113.495737,44.1797787 115.102477,42.2747131 C115.753472,41.5740738 116.657344,40.5470738 117.8115,39.1950082 C120.569801,35.2372377 123.330696,31.2781721 126.090294,27.3191066 C130.001454,22.1089918 133.286258,18.9269754 135.947299,17.7743525 C136.549016,17.8753689 136.851171,18.1512213 136.851171,18.6006148 C136.851171,20.4564672 136.473801,21.8072377 135.722952,22.6594016 C134.619372,23.7110082 133.012632,25.3402213 130.906623,27.5457459 C128.044577,30.6021393 124.434276,34.9600902 120.069235,40.6221885 C118.965655,41.9263361 117.435426,43.979041 115.47855,46.7841885 C115.829984,47.5871393 116.505618,47.9873197 117.509344,47.9873197 C118.815226,47.9873197 120.370093,47.5107295 122.176541,46.5588443 C123.229545,46.0071393 124.182696,44.8312049 125.035993,43.0271557 C125.737563,41.625877 126.768522,40.9226475 128.122385,40.9226475 C128.973089,40.9226475 129.499591,41.3487295 129.703189,42.2008934 C129.751171,42.5013525 129.778404,43.2784016 129.778404,44.5307459 C129.778404,45.7830902 129.286915,47.0354344 128.309125,48.2877787 C127.330038,49.541418 126.239426,50.267959 125.035993,50.4674016 C122.879408,50.6163361 120.694294,50.7678607 118.488431,50.9167951 C115.778111,51.3687787 114.425545,52.6729262 114.425545,54.8253525 C114.425545,56.5296803 116.305911,58.4852541 120.069235,60.6894836 C123.530404,62.6916803 126.21349,63.6953689 128.122385,63.6953689 C131.833837,63.6953689 136.87581,61.6141721 143.247006,57.4582541 C143.899299,56.9557623 144.927664,56.4040574 146.333399,55.8031393" id="Fill-16" fill="#7D5A41"></path>
                        <path d="M190.357679,38.0659557 C190.357679,42.9276934 187.949514,47.7117262 183.133185,52.4206443 C174.703962,60.6884475 167.680473,64.8223492 162.06272,64.8223492 C161.859121,64.8223492 161.584199,64.8456607 161.232765,64.8974639 L160.33019,64.8974639 C159.377039,64.8974639 158.901112,64.2706443 158.901112,63.0183 C158.901112,62.5171033 159.052838,61.8164639 159.351103,60.9137918 C159.004857,60.663841 158.705295,60.538218 158.460199,60.538218 C157.369587,60.538218 155.783596,61.0886279 153.70093,62.1920377 C151.618263,63.2928574 149.958354,63.8445623 148.721204,63.8445623 C147.529441,63.8445623 146.935505,63.0429066 146.935505,61.4395951 L146.935505,59.9748574 L146.935505,58.7341689 C146.935505,58.3339885 146.833058,57.8314967 146.634647,57.2305787 L146.182062,57.0065295 C145.930482,57.0065295 145.567377,57.156759 145.09145,57.4585131 C144.615523,57.7589721 144.226482,57.9079066 143.925624,57.9079066 L143.399121,57.6825623 C145.503834,56.1789721 148.037788,54.2246934 150.998391,51.8197262 C151.301843,51.4195459 151.775176,50.8691361 152.430062,50.1672016 C153.079761,49.6673 154.032911,49.414759 155.288217,49.414759 C156.04166,49.414759 156.492948,49.6154967 156.644674,50.015677 C156.341222,50.5168738 154.961423,51.7459066 152.505277,53.6988902 C150.798683,55.0522508 149.945386,56.730677 149.945386,58.7341689 C149.945386,59.8362836 150.471889,60.3879885 151.524893,60.3879885 C152.430062,60.3879885 155.101478,59.0980869 159.540437,56.5182836 C163.980692,53.9371852 166.374592,52.6472836 166.727322,52.6472836 C167.528747,52.6472836 167.932053,52.921841 167.932053,53.4735459 C167.932053,53.8245131 167.002245,54.6391197 165.146519,55.9173656 C163.290793,57.1930213 162.362281,58.5852344 162.362281,60.0875295 C162.362281,61.1391361 163.059962,61.6649393 164.456619,61.6649393 C164.407341,61.6649393 164.905313,61.4654967 165.954427,61.0627262 C168.745149,60.0124148 171.561806,58.4091033 174.4044,56.255382 C175.902208,55.102759 178.433569,52.9360869 181.998482,49.7527754 C185.563395,46.570759 187.347797,42.8525787 187.347797,38.5930541 C187.347797,35.3864311 184.544108,32.6304967 178.938026,30.3252508 C174.331779,28.4214803 170.126245,27.4708902 166.32272,27.4708902 L165.272309,27.4708902 C164.770446,27.5201033 164.394373,27.5460049 164.144089,27.5460049 C163.944382,27.5460049 163.657788,27.4967918 163.283012,27.3944803 C162.905642,27.294759 162.619048,27.2455459 162.419341,27.2455459 C162.270208,27.2455459 161.642555,27.5201033 160.541569,28.0718082 L158.286427,28.9731852 C155.284327,30.1763164 153.783925,33.0565787 153.783925,37.6165623 C153.783925,39.0191361 154.159998,40.1458574 154.913441,40.9993164 C155.364729,41.497923 156.089642,42.0004148 157.094665,42.5016115 C157.896089,42.9017918 158.322738,43.2281525 158.37461,43.4768082 C158.173605,43.7785623 157.947962,43.9287918 157.695085,43.9287918 C156.241368,43.9287918 154.874537,43.1025295 153.594592,41.4487098 C152.315943,39.7961852 151.676619,38.2174803 151.676619,36.7138902 C151.676619,35.0600705 151.977478,33.5331689 152.579195,32.1293 C153.180911,31.3781525 154.159998,30.3019393 155.515158,28.8980705 C157.119304,27.595218 158.84924,26.7430541 160.70756,26.3428738 C162.010847,26.0424148 163.943085,25.8921852 166.501679,25.8921852 C171.668144,25.8921852 177.612692,27.1691361 184.336619,29.7243328 C185.993934,30.3770541 187.408747,31.4895295 188.588838,33.0682344 C189.767633,34.6482344 190.357679,36.3137098 190.357679,38.0659557" id="Fill-18" fill="#7D5A41"></path>
                        <path d="M206.310568,56.4804672 C205.807408,57.583877 204.05413,58.3855328 201.042952,58.8854344 C199.637216,59.1366803 198.533637,59.5122541 197.732212,60.0121557 C196.82834,60.7153852 195.910203,61.4134344 194.984285,62.1166639 C194.055774,62.8173033 192.399755,63.6202541 190.018824,64.5216311 C187.634002,65.4243033 185.91444,65.8736967 184.864029,65.8736967 C183.056285,65.8736967 182.15371,64.8182049 182.15371,62.7046311 C182.15371,61.4950246 182.72949,60.1869918 183.884942,58.7779426 C185.487792,56.9169098 186.368321,55.8329262 186.516157,55.5324672 C186.819609,54.7787295 187.132139,54.0470082 187.458933,53.3424836 C187.784431,52.637959 188.386148,52.0085492 189.264084,51.4555492 C190.14202,50.9012541 191.157417,50.6254016 192.314166,50.6254016 C194.119317,49.6178279 195.873892,49.114041 197.580486,49.114041 C198.433783,49.114041 199.210568,49.4909098 199.912139,50.2433525 C201.017016,49.4909098 202.095956,49.114041 203.148961,49.114041 C203.55097,49.114041 203.751974,49.4145 203.751974,50.015418 C203.751974,51.3195656 203.438148,52.7221393 202.811792,54.2244344 C202.182842,55.7280246 201.391792,56.8301393 200.441235,57.5320738 L200.665582,57.5320738 C200.918458,57.5320738 201.306203,57.5074672 201.832705,57.4582541 C202.359207,57.4077459 202.785856,57.3818443 203.11265,57.3818443 C203.438148,57.3818443 203.92834,57.1694508 204.580632,56.7433689 C205.231627,56.3172869 205.75813,56.1295 206.161436,56.1800082 L206.310568,56.4804672 Z M199.086075,54.6194344 C199.086075,54.2166639 198.581618,53.6727295 197.572705,52.9928115 C196.561198,52.3115984 195.85444,51.9709918 195.453728,51.9709918 C194.140066,51.9709918 192.211719,53.2453525 189.662203,55.7940738 C187.113984,58.3415 185.840522,60.3216803 185.840522,61.7320246 C185.840522,62.5388607 186.32034,62.9429262 187.279974,62.9429262 C187.632705,62.9429262 188.185143,62.8419098 188.942477,62.639877 C191.718933,61.8835492 193.635609,61.1777295 194.696395,60.522418 C196.26034,59.6145656 197.598641,58.1006148 198.707408,55.9805656 C198.960285,55.4767787 199.086075,55.0235 199.086075,54.6194344 L199.086075,54.6194344 Z" id="Fill-20" fill="#7D5A41"></path>
                        <path d="M226.854272,56.4804672 C226.352409,57.583877 224.597834,58.3855328 221.586656,58.8854344 C220.180921,59.1366803 219.077341,59.5122541 218.275916,60.0121557 C217.372044,60.7153852 216.453907,61.4134344 215.529286,62.1166639 C214.599478,62.8173033 212.943459,63.6202541 210.562528,64.5216311 C208.179003,65.4243033 206.458144,65.8736967 205.407733,65.8736967 C203.601286,65.8736967 202.697414,64.8182049 202.697414,62.7046311 C202.697414,61.4950246 203.273195,60.1869918 204.428647,58.7779426 C206.032793,56.9169098 206.912026,55.8329262 207.062455,55.5324672 C207.363313,54.7787295 207.675843,54.0470082 208.002637,53.3424836 C208.328135,52.637959 208.929852,52.0085492 209.807788,51.4555492 C210.685724,50.9012541 211.702418,50.6254016 212.85787,50.6254016 C214.663021,49.6178279 216.417596,49.114041 218.12419,49.114041 C218.977487,49.114041 219.755569,49.4909098 220.455843,50.2433525 C221.562016,49.4909098 222.63966,49.114041 223.692665,49.114041 C224.094674,49.114041 224.296975,49.4145 224.296975,50.015418 C224.296975,51.3195656 223.981852,52.7221393 223.355496,54.2244344 C222.727843,55.7280246 221.935496,56.8301393 220.984939,57.5320738 L221.209286,57.5320738 C221.462163,57.5320738 221.849907,57.5074672 222.376409,57.4582541 C222.902911,57.4077459 223.32956,57.3818443 223.656354,57.3818443 C223.981852,57.3818443 224.472044,57.1694508 225.124336,56.7433689 C225.775332,56.3172869 226.301834,56.1295 226.70514,56.1800082 L226.854272,56.4804672 Z M219.629779,54.6194344 C219.629779,54.2166639 219.125322,53.6727295 218.116409,52.9928115 C217.104902,52.3115984 216.398144,51.9709918 215.997432,51.9709918 C214.68377,51.9709918 212.755423,53.2453525 210.205907,55.7940738 C207.657688,58.3415 206.384226,60.3216803 206.384226,61.7320246 C206.384226,62.5388607 206.864044,62.9429262 207.823679,62.9429262 C208.176409,62.9429262 208.728847,62.8419098 209.488774,62.639877 C212.263934,61.8835492 214.179313,61.1777295 215.240099,60.522418 C216.805341,59.6145656 218.142345,58.1006148 219.251112,55.9805656 C219.503989,55.4767787 219.629779,55.0235 219.629779,54.6194344 L219.629779,54.6194344 Z" id="Fill-22" fill="#7D5A41"></path>
                        <g id="Group-26" transform="translate(204.598174, 9.065574)">
                            <mask id="mask-2" fill="white">
                                <use xlink:href="#path-1"></use>
                            </mask>
                            <g id="Clip-25"></g>
                            <path d="M78.1706411,21.3355689 C78.1706411,22.1877328 76.4018009,22.7627492 72.8654174,23.0632082 C69.3290338,23.3649623 65.1247963,23.9153721 60.259189,24.718323 C58.7536,24.8180443 56.4699288,25.0926016 53.4107689,25.5445852 C52.5094904,27.2981262 51.0765224,29.9025361 49.1222393,33.3604049 C47.5142027,36.016618 45.0074813,39.3475689 41.5968877,43.3558475 C37.731116,47.865323 34.8223854,50.6717656 32.8655087,51.7725852 C31.1096365,52.7749787 29.3291251,53.3758967 27.5226776,53.5766344 C26.5189516,54.7292574 25.2908785,55.3055689 23.8358648,55.3055689 C22.8321388,55.3055689 22.0553534,54.7292574 21.5029151,53.5766344 C21.0529242,52.6247492 20.8259836,51.5977492 20.8259836,50.4969295 C20.8259836,49.192782 21.9295635,47.3654213 24.1367233,45.0096672 C26.0936,43.0074705 27.8248329,41.5777 29.3291251,40.7255361 C30.3315543,40.1764213 31.1342758,39.7114869 31.7372895,39.3359131 C32.3403032,38.9590443 32.7410155,38.7725525 32.9420201,38.7725525 C33.893874,38.7725525 34.3710977,39.0471098 34.3710977,39.5988148 C34.3710977,40.2489459 33.5165041,41.1011098 31.8138009,42.1527164 C29.2526137,43.7081098 27.6744037,44.7584213 27.0726868,45.3101262 C25.3647963,46.7632082 24.5127963,48.2914049 24.5127963,49.8960115 C24.5127963,50.946323 24.9653808,51.4721262 25.869253,51.4721262 C26.3698192,51.4721262 27.447463,50.946323 29.1047781,49.8960115 C29.706495,49.5942574 30.6077735,49.1435689 31.8138009,48.5413557 C34.3218192,47.0882738 37.7700201,43.5708311 42.1597005,37.9812574 C46.5493808,32.3968639 49.1961571,28.2007984 50.1000292,25.3930607 C48.6955909,25.2933393 47.6412895,25.2441262 46.9384219,25.2441262 C45.5858557,25.2441262 43.5537644,25.3075852 40.8447416,25.430618 C38.1357187,25.556241 36.1036274,25.6197 34.7484676,25.6197 C29.7817096,25.6197 25.1650886,25.0679951 20.9011982,23.9658803 C17.5891616,23.0632082 13.2500566,21.4611918 7.8825863,19.1559459 C5.62355434,18.1535525 3.79376438,16.677159 2.38802922,14.7215852 C0.983590868,12.7686016 0.280723288,10.5643721 0.280723288,8.10760164 C0.280723288,6.30355246 0.782586301,4.95148689 1.78631233,4.05010984 C2.63960913,3.29766721 4.01811142,2.72265082 5.92441279,2.32247049 C12.1970521,0.967814754 17.1391708,0.291781967 20.7507689,0.291781967 C25.7175269,0.291781967 32.0394447,1.31878197 39.7139288,3.37278197 C41.4698009,3.82476557 43.2995909,4.75333934 45.2084858,6.15461803 C46.812632,7.3564541 48.4180749,8.58548689 50.0248146,9.83524098 C52.7844128,11.7908148 54.1629151,14.070159 54.1629151,16.677159 C54.1629151,17.0268311 54.0993717,17.5526344 53.9761753,18.2532738 C53.8503854,18.9565033 53.7855452,19.4823066 53.7855452,19.8319787 L53.7855452,21.4106836 C53.8361205,22.111323 53.8361205,22.6630279 53.7855452,23.0632082 C55.147189,23.0632082 57.2596822,22.9518311 60.1282119,22.7251918 C62.9980384,22.4998475 67.3475178,22.0621098 73.1870247,21.4106836 C76.1554082,21.0610115 77.5403945,20.8861754 77.33939,20.8861754 C77.8931251,20.8861754 78.1706411,21.0351098 78.1706411,21.3355689 M50.7782575,23.1435033 C50.7782575,20.0974705 50.577253,17.8751098 50.1765406,16.4777164 C49.5735269,14.3809787 48.2987689,12.5834049 46.3444858,11.0837 C43.338495,8.78881475 40.6100201,7.26579836 38.1551708,6.51724098 C35.4007598,5.71817541 32.6450521,4.92040492 29.8893443,4.12004426 C26.6836457,3.27176557 23.8786594,2.84827377 21.4730886,2.84827377 C21.7259653,2.84827377 20.3967416,3.09692951 17.4931982,3.59683115 C14.7880658,3.94650328 12.0829333,4.27156885 9.38039452,4.5694377 C5.87254064,5.36850328 4.1179653,6.99124098 4.1179653,9.43765082 C4.1179653,14.6296344 9.47765479,18.5744541 20.1996274,21.2721098 C27.7612895,23.218618 35.3242484,24.1899295 42.8885041,24.1899295 C48.1470429,24.1899295 50.7782575,23.8415525 50.7782575,23.1435033" id="Fill-24" fill="#7D5A41" mask="url(#mask-2)"></path>
                        </g>
                        <g id="Group-29" fill="#7D5A41">
                            <path d="M56.4082356,11.9804148 C56.4082356,10.278677 55.8065187,8.8748082 54.6017881,7.77139836 C53.3983543,6.67057869 51.9174046,6.13311967 50.1628292,6.11887377 C46.5901352,6.09038197 40.0672128,8.48239836 35.0006009,11.1010541 C34.881295,9.62207049 34.9655872,6.96715246 36.5087836,3.95220164 C38.8521078,-0.627208197 37.4230301,0.240496721 33.8399616,4.08170984 C30.7782082,7.36474262 31.3902995,11.6100213 31.6328018,12.7820705 C29.908053,13.7223 27.6840347,14.9875951 25.8905553,16.0728738 C20.0277059,19.8635787 15.0518703,23.9042344 12.2935689,26.4128082 C9.93468311,28.5717098 8.65862831,29.9367262 5.91459178,35.1338902 C4.2183726,37.8380213 2.99808037,40.7441852 2.49232694,42.1804311 C2.06438174,43.8407262 1.1631032,45.7160049 0.46153242,48.3735131 C-0.242631963,51.0323164 0.0686009132,53.2158246 0.0686009132,54.8217262 C0.0686009132,57.9804311 1.17218082,60.5136115 3.38063744,62.4212672 C4.41548676,63.5259721 7.9453863,65.1810869 11.3572767,65.3675787 C13.5955598,65.7871852 18.9332037,64.2900705 23.0972402,62.1363492 C26.0630301,60.601677 28.1547744,59.3104803 30.1790849,57.3691525 C31.9375507,55.9225459 35.4142813,50.8730213 35.5102447,50.7499885 C37.4334046,48.2737918 37.3659708,48.9044967 38.1907379,47.8334639 C38.3126374,47.8580705 38.4358338,47.896923 38.5538429,47.8891525 C49.8567836,47.1833328 41.8062265,46.1848246 40.7182082,46.316923 C40.4445826,46.3505951 40.0114502,46.1628082 39.5848018,45.811841 C40.8893863,43.7876279 41.4145918,42.5197426 42.0552128,41.5963492 C42.8903543,40.393218 43.2145553,40.2416934 42.7334411,38.3081361 C41.8931123,37.2824311 37.9871397,37.3782672 37.3568932,38.2032344 C36.4763635,38.875382 35.6710484,40.3750869 35.3624091,43.3045623 C35.250884,44.3678246 35.7670119,45.6447754 36.4971123,46.5863 C31.5562904,51.7938246 23.6639434,58.341759 20.8628475,59.2094639 C11.8604365,63.3045131 7.53818995,60.0201852 6.46573333,58.9051197 C5.01071963,57.0505623 4.28321279,54.3192344 4.28321279,50.7124311 C4.28321279,46.8038738 9.34982466,36.6284148 15.2878886,29.5274803 C21.2570758,24.3173656 26.9591215,19.379218 32.3771671,16.3228246 C36.2260804,22.5016607 56.4082356,17.2410377 56.4082356,11.9804148 M40.6689297,40.8633328 C40.5483269,41.6222508 39.7248566,42.8603492 38.5084548,44.326382 C38.0364183,43.1141852 38.2037059,41.4797918 40.2085644,39.7845295 C40.2124548,39.7806443 40.2124548,39.776759 40.2163452,39.7728738 C40.5444365,40.0098738 40.7493315,40.3349393 40.6689297,40.8633328 M55.3967288,10.7954148 C55.3967288,13.0928902 47.8233954,15.8060869 44.0600712,16.0210705 C37.7796511,16.3798082 35.3286922,15.6364311 36.7486922,13.8284967 C37.3102082,13.1110213 39.4136237,12.1552508 41.4457151,10.6607262 C43.2158521,9.35787377 46.2075781,8.82041475 47.8026466,8.36972623 C51.4298064,7.34402131 55.3967288,8.49793934 55.3967288,10.7954148" id="Fill-27"></path>
                        </g>
                    </g>
                </g>
            </g>
        </g>
    </g>
</svg>